<?xml version="1.0" standalone="no"?>
<!DOCTYPE svg PUBLIC "-//W3C//DTD SVG 20010904//EN"
 "http://www.w3.org/TR/2001/REC-SVG-20010904/DTD/svg10.dtd">
<svg version="1.0" xmlns="http://www.w3.org/2000/svg"
 width="525.000000pt" height="475.000000pt" viewBox="0 0 525.000000 475.000000"
 preserveAspectRatio="xMidYMid meet">

<g transform="translate(0.000000,475.000000) scale(0.100000,-0.100000)"
fill="#000000" stroke="none">
<path d="M849 4653 c-13 -16 -12 -17 4 -4 9 7 17 15 17 17 0 8 -8 3 -21 -13z"/>
<path d="M799 4603 c-13 -16 -12 -17 4 -4 9 7 17 15 17 17 0 8 -8 3 -21 -13z"/>
<path d="M280 4460 c0 -5 5 -10 11 -10 5 0 7 5 4 10 -3 6 -8 10 -11 10 -2 0
-4 -4 -4 -10z"/>
<path d="M340 4396 c0 -2 8 -10 18 -17 15 -13 16 -12 3 4 -13 16 -21 21 -21
13z"/>
<path d="M587 4265 c-48 -7 -90 -15 -93 -17 -4 -4 39 -339 52 -402 l6 -28 67
7 c36 3 76 9 88 12 20 4 22 0 27 -54 27 -252 199 -416 501 -477 217 -43 632
-58 835 -30 138 19 199 13 279 -27 73 -37 173 -140 222 -231 130 -241 254
-611 278 -831 14 -122 3 -223 -43 -412 -60 -243 -69 -307 -63 -440 6 -142 31
-246 86 -362 153 -320 405 -475 615 -380 76 35 97 34 142 -6 50 -43 68 -89 93
-230 12 -65 31 -139 43 -165 59 -124 178 -182 375 -182 116 0 195 20 264 67
24 16 112 67 194 113 203 113 216 114 344 30 110 -74 181 -101 276 -107 l70
-5 -3 45 -4 44 -61 7 c-70 7 -155 44 -242 105 -32 23 -83 49 -112 57 -81 24
-131 8 -319 -96 -88 -50 -164 -90 -169 -90 -4 0 -20 -11 -37 -25 -95 -80 -352
-70 -446 18 -40 37 -61 90 -82 214 -25 140 -62 226 -121 277 -72 61 -151 66
-251 15 -178 -91 -455 158 -538 485 -44 173 -38 280 31 559 67 275 74 413 28
625 -38 176 -177 559 -251 692 -52 93 -135 197 -191 239 -127 96 -232 116
-452 87 -148 -20 -270 -20 -495 -1 -287 24 -412 55 -526 131 -112 74 -162 162
-175 308 -13 136 -24 171 -68 219 -37 40 -39 46 -51 150 -8 65 -17 107 -24
106 -6 -1 -51 -7 -99 -14z"/>
</g>
</svg>
